<svg xmlns="http://www.w3.org/2000/svg" viewBox="0 0 347 308" id="use">
  <path fill="#fff" d="M88 284c181 65 236-229 57-243C18 31-58 231 88 284" />
  <path
    fill="#f35b6f"
    stroke="#400040"
    stroke-linecap="round"
    stroke-linejoin="round"
    stroke-width="10"
    d="M147 99c58 0 95 109 3 128-61 4-70-126-3-128"
  />
  <path
    fill="#fff"
    stroke="#400040"
    stroke-linecap="round"
    stroke-linejoin="round"
    stroke-width="5"
    d="M157 153c-31-25-60 23 11 36 46-37 7-76-11-36"
  />
  <path
    fill="#400040"
    d="M198 276c16 10 37-24 51-40 4 11 53 26 56-2 3-18-38-26-38-26s14-33 15-48c10 7 63 14 65-18 3-28-63-14-63-14-3-33-20-65-20-65s53-24 37-49c-12-19-40 2-53 24C150-55-4 37 0 160c0 0 0 22 9 25v-1C28-46 364 31 198 264q-5 8 0 12c5 4 0 0 0 0m-91 20q-2 10 4 11 7 1 7-9h22s-1 10 6 10c8-1 3-12 3-12s16-1 14-8-16-1-34-2-35-8-39-5c-4 4 9 14 17 15"
  />
</svg>
